<svg xmlns="http://www.w3.org/2000/svg" width="140" height="175" viewBox="0 0 140 175"><g transform="translate(0)"><g transform="translate(0)"><g transform="translate(2.416 2.391)"><path d="M911.763,859.191l107.845-72.265a9.965,9.965,0,0,0,4.281-7.906l11.238-81.208c.041-3.07-11.923-9.782-14.252-8.48l-115.5,64.525a9.953,9.953,0,0,0-4.281,7.906l-1.12,86.481C899.931,851.311,909.437,860.489,911.763,859.191Z" transform="translate(-899.972 -689.166)" fill="#2189d1"/></g><path d="M911.439,862.263a7.08,7.08,0,0,1-3.3-1.136c-3.477-2.061-10.1-8.375-10.05-12.09l1.126-86.822a12.13,12.13,0,0,1,5.377-9.725l116.061-64.778c2.547-1.412,7.638,1.159,10.445,2.823,3.207,1.9,7.021,4.741,6.991,7.533l-11.305,81.781a11.8,11.8,0,0,1-5.351,9.464L913.045,861.875A3.19,3.19,0,0,1,911.439,862.263Zm111.2-170.829a1.393,1.393,0,0,0-.215.01l-115.8,64.673a7.972,7.972,0,0,0-3.239,6.153l-1.126,86.821c.249,1.964,6.693,8.339,9,8.969l107.968-72.274a8.026,8.026,0,0,0,3.384-6.25l11.257-81.465C1032.976,696.089,1025.121,691.466,1022.638,691.434Z" transform="translate(-898.092 -687.304)" fill="#414141"/><g transform="translate(11.707 8.284)"><g transform="translate(3.331 1.521)"><path d="M913.188,857.035l113.965-64.048a9.918,9.918,0,0,0,4.224-7.854l1.105-85.854c.039-3.046-1.788-4.469-4.087-3.178L914.431,760.149A9.926,9.926,0,0,0,910.206,768L909.1,853.858C909.064,856.906,910.891,858.327,913.188,857.035Z" transform="translate(-909.101 -695.625)" fill="#fff"/></g><g transform="translate(0 0)"><path d="M911.713,860.466a4.1,4.1,0,0,1-2.08-.587,5.642,5.642,0,0,1-2.4-5.175l1.112-86.227a12.064,12.064,0,0,1,5.3-9.659l114.642-64.335a4.685,4.685,0,0,1,4.769-.156,5.648,5.648,0,0,1,2.406,5.178l-1.112,86.227a11.906,11.906,0,0,1-5.311,9.666L914.408,859.725A5.411,5.411,0,0,1,911.713,860.466Zm119.208-162.592a1.333,1.333,0,0,0-.623.211L915.663,762.418a7.962,7.962,0,0,0-3.187,6.113l-1.114,86.227c-.012,1.122.317,1.544.384,1.576.037.02.255.016.653-.211l114.64-64.332a7.969,7.969,0,0,0,3.187-6.114l1.11-86.227c.016-1.121-.31-1.543-.381-1.576Z" transform="translate(-907.208 -693.75)" fill="#150035"/></g></g></g><g transform="translate(31.863 40.867)"><path d="M910.273,805.69a2.815,2.815,0,0,1-1.415-.394,3.77,3.77,0,0,1-1.632-3.475l.756-57.9a8.076,8.076,0,0,1,3.607-6.486l77.976-43.2a3.222,3.222,0,0,1,3.244-.1,3.774,3.774,0,0,1,1.637,3.477l-.756,57.9a7.971,7.971,0,0,1-3.613,6.49l-77.971,43.191A3.718,3.718,0,0,1,910.273,805.69Zm81.082-109.171a.913.913,0,0,0-.424.142l-77.971,43.2a5.326,5.326,0,0,0-2.168,4.1l-.757,57.9c-.008.754.216,1.037.261,1.059.025.013.173.011.444-.142l77.975-43.195a5.33,5.33,0,0,0,2.167-4.105l.755-57.9c.011-.753-.211-1.036-.259-1.058Z" transform="translate(-907.208 -693.75)" fill="#150035"/><g transform="translate(4.604 1.8)"><path d="M30.058,1.57A2.386,2.386,0,0,0,27.006.143L24.1,1.2,6.834,7.457,1.571,9.365a2.382,2.382,0,1,0,1.623,4.479l3.639-1.32,21.8-7.9c.05-.017.1-.038.145-.059A2.381,2.381,0,0,0,30.058,1.57Z" transform="translate(21.011 40.922) rotate(-21)" fill="#fff"/><path d="M15.1,1.564A2.383,2.383,0,0,0,12.861,0H2.382A2.384,2.384,0,0,0,.213,1.4,2.354,2.354,0,0,0,0,2.382,2.385,2.385,0,0,0,2.382,4.763H12.861a2.381,2.381,0,0,0,2.237-3.2Z" transform="translate(40.999 34.064) rotate(-21)" fill="#fff"/><path d="M20.5,1.564A3.348,3.348,0,0,0,17.466,0H3.234A3.447,3.447,0,0,0,.29,1.4,1.848,1.848,0,0,0,0,2.382C0,3.7,1.449,4.762,3.234,4.763H17.466a3.685,3.685,0,0,0,2.651-1.017A1.87,1.87,0,0,0,20.5,1.564Z" transform="translate(38.959 44.05) rotate(-21)" fill="#fff"/><path d="M36.126-.333h0L5.3,51.049.926,58.333" transform="translate(44.14 0.333)" fill="none" stroke="#150035" stroke-linecap="round" stroke-width="3"/><path d="M29.193,0h0L3.625,32.027,0,36.567" transform="matrix(-0.391, -0.921, 0.921, -0.391, 11.406, 73.005)" fill="none" stroke="#150035" stroke-linecap="round" stroke-width="3"/></g></g></g></svg>