<svg xmlns="http://www.w3.org/2000/svg" width="141.8" height="175" viewBox="0 0 141.8 175"><g transform="translate(0.017)"><g transform="translate(2.508 2.543)"><path d="M714.482,873.805,606.156,800.877a9.8,9.8,0,0,1-4.238-7.883L591.6,712.446c0-3.038,12.212-9.526,14.554-8.213l116.183,65.359a9.8,9.8,0,0,1,4.235,7.882v85.642C726.574,866.155,716.824,875.12,714.482,873.805Z" transform="translate(-591.6 -704.06)" fill="#2189d1"/></g><path d="M716.033,877.168a7.283,7.283,0,0,0,3.358-1.085c3.557-2.008,10.35-8.179,10.35-11.864v-86.14a11.964,11.964,0,0,0-5.318-9.717L607.571,702.623c-2.566-1.436-7.761,1.051-10.631,2.668-3.274,1.841-7.182,4.614-7.182,7.384L600.15,793.95a11.642,11.642,0,0,0,5.3,9.461l108.956,73.348A3.3,3.3,0,0,0,716.033,877.168ZM605.512,706.3a1.274,1.274,0,0,1,.218.012l116.575,65.631a7.855,7.855,0,0,1,3.2,6.145v86.14c-.281,1.943-6.9,8.185-9.249,8.781L607.72,799.933a7.894,7.894,0,0,1-3.349-6.237l-10.345-80.954c.941-1.966,8.966-6.452,11.486-6.452Z" transform="translate(-589.758 -702.193)" fill="#414141"/></g><g transform="translate(0 8.599)"><g transform="translate(2.529 2.55)"><path d="M710.143,871.186,595.774,806.516a9.729,9.729,0,0,1-4.172-7.806V713.961c0-3.007,1.867-4.386,4.172-3.082l114.369,64.669a9.732,9.732,0,0,1,4.17,7.808V868.1C714.313,871.106,712.448,872.49,710.143,871.186Z" transform="translate(-591.602 -710.387)" fill="#fff"/></g><g transform="translate(0 0)"><path d="M712.884,874.913A4.217,4.217,0,0,0,715,874.36a5.548,5.548,0,0,0,2.5-5.089V783.983a11.863,11.863,0,0,0-5.239-9.622L597.1,709.271a4.825,4.825,0,0,0-4.822-.216,5.534,5.534,0,0,0-2.5,5.089v85.29a11.694,11.694,0,0,0,5.243,9.627l115.153,65.085a5.555,5.555,0,0,0,2.717.767ZM594.387,712.59a1.383,1.383,0,0,1,.628.216l115.153,65.089a7.81,7.81,0,0,1,3.153,6.086V869.27c0,1.11-.346,1.523-.41,1.554-.038.02-.258.013-.658-.215L597.1,805.519a7.819,7.819,0,0,1-3.15-6.086V714.144c0-1.109.336-1.523.407-1.554Z" transform="translate(-589.75 -708.512)" fill="#150035"/></g></g><g transform="translate(14.789 30.055)"><g transform="translate(0 0)"><path d="M700.373,847.526l-97.613-52.17a4.643,4.643,0,0,1-2.145-3.783V726.022c0-1.459.961-2.129,2.145-1.5l97.613,52.17a4.644,4.644,0,0,1,2.143,3.783v65.55C702.516,847.484,701.555,848.155,700.373,847.526Z" transform="translate(-600.615 -724.286)" fill="#fff"/></g></g><ellipse cx="14.688" cy="14.688" rx="14.688" ry="14.688" transform="translate(10.237 64.648)" fill="#2189d1"/><path d="M134.333,48.109,6.014,47.246a10.271,10.271,0,0,1-4.663-2.456A9.8,9.8,0,0,1,0,42.721L25.953.531c.254-.273,1.8-.919,2.331-.21L71.875,36.243,95.711,10.837a2.984,2.984,0,0,1,4.034,0l15.291,16.295.877.937L133.451,46.76Z" transform="matrix(0.875, 0.485, -0.485, 0.875, 24.31, 61.274)" fill="#374e5b"/><path d="M13.78,0A8.025,8.025,0,0,0,7.372,3.186,5.284,5.284,0,0,0,0,8.038H21.819A8.039,8.039,0,0,0,13.78,0Z" transform="translate(84.105 91.705) rotate(29)" fill="#e6e6e6"/><path d="M12.579,0A6.988,6.988,0,0,0,6.73,3.5a4.134,4.134,0,0,0-4.558.483A6.184,6.184,0,0,0,0,8.829H19.917C19.917,3.953,16.632,0,12.579,0Z" transform="translate(14.518 43.896) rotate(29)" fill="#e6e6e6"/><path d="M15.372,0A8.728,8.728,0,0,0,8.224,3.863a5.492,5.492,0,0,0-5.57.533A6.567,6.567,0,0,0,0,9.747H24.34C24.34,4.364,20.325,0,15.372,0Z" transform="translate(53.151 94.551) rotate(29)" fill="#ccc"/><path d="M11.846,0A6.9,6.9,0,0,0,6.338,2.739,4.542,4.542,0,0,0,0,6.91H18.757A6.91,6.91,0,0,0,11.846,0Z" transform="translate(67.911 64.648) rotate(29)" fill="rgba(230,230,230,0.55)"/></svg>